<?xml version="1.0" encoding="UTF-8" standalone="no"?>
<!-- Created with Inkscape (http://www.inkscape.org/) -->

<svg
   xmlns:dc="http://purl.org/dc/elements/1.1/"
   xmlns:cc="http://creativecommons.org/ns#"
   xmlns:rdf="http://www.w3.org/1999/02/22-rdf-syntax-ns#"
   xmlns:svg="http://www.w3.org/2000/svg"
   xmlns="http://www.w3.org/2000/svg"
   xmlns:sodipodi="http://sodipodi.sourceforge.net/DTD/sodipodi-0.dtd"
   xmlns:inkscape="http://www.inkscape.org/namespaces/inkscape"
   width="273.5509mm"
   height="87.034286mm"
   viewBox="0 0 273.5509 87.034286"
   version="1.1"
   id="svg8"
   inkscape:version="0.92.1 r15371"
   sodipodi:docname="logo.svg">
  <defs
     id="defs2">
    <style
       id="style10"
       type="text/css"><![CDATA[
    .fil0 {fill:#FEFEFE}
    .fil1 {fill:#D45F93}
   ]]></style>
  </defs>
  <sodipodi:namedview
     id="base"
     pagecolor="#ffffff"
     bordercolor="#666666"
     borderopacity="1.0"
     inkscape:pageopacity="0.0"
     inkscape:pageshadow="2"
     inkscape:zoom="0.35"
     inkscape:cx="588.37515"
     inkscape:cy="304.47424"
     inkscape:document-units="mm"
     inkscape:current-layer="layer1"
     showgrid="false"
     inkscape:window-width="1920"
     inkscape:window-height="1017"
     inkscape:window-x="-8"
     inkscape:window-y="-8"
     inkscape:window-maximized="1" />
  <metadata
     id="metadata5">
    <rdf:RDF>
      <cc:Work
         rdf:about="">
        <dc:format>image/svg+xml</dc:format>
        <dc:type
           rdf:resource="http://purl.org/dc/dcmitype/StillImage" />
        <dc:title></dc:title>
      </cc:Work>
    </rdf:RDF>
  </metadata>
  <g
     inkscape:label="Layer 1"
     inkscape:groupmode="layer"
     id="layer1"
     transform="translate(49.840925,-142.35786)">
    <g
       style="clip-rule:evenodd;fill-rule:evenodd;image-rendering:optimizeQuality;shape-rendering:geometricPrecision;text-rendering:geometricPrecision"
       id="g52"
       transform="matrix(0.01,0,0,0.01,-63.270027,88.462143)">
      <g
         id="">
        <metadata
           id="CorelCorpID_0Corel-Layer" />
        <path
           id="path15"
           d="m 9605,8618 c 2,74 177,662 177,1195 0,724 -25,1101 -297,1769 -124,306 -266,540 -449,805 -60,87 -127,162 -183,245 527,0 1053,28 1581,28 l 205,-1843 752,1948 738,-1948 c 1,47 15,157 23,213 l 65,673 c 10,145 27,308 42,445 17,149 31,388 54,523 419,-26 825,-63 1242,-104 2,-34 -24,-191 -31,-238 l -451,-3725 h -1136 l -397,1094 -143,353 -63,-180 -395,-1080 c -24,-70 -49,-120 -64,-186 -438,0 -845,15 -1269,15 z"
           class="fil0"
           inkscape:connector-curvature="0"
           style="fill:#fefefe" />
        <path
           id="path17"
           d="m 15994,11495 c -868,0 -1243,-977 -675,-1546 574,-575 1546,-149 1546,631 0,277 -112,490 -254,631 -164,162 -358,284 -616,284 z m -2272,-915 c 0,474 134,843 405,1204 215,287 570,565 915,708 130,54 265,98 416,130 69,15 167,30 229,36 189,19 332,10 514,2 751,-34 1427,-543 1781,-1185 62,-112 124,-269 151,-395 172,-795 -30,-1394 -578,-1943 -349,-350 -922,-623 -1457,-623 -443,0 -707,7 -1117,197 -229,106 -454,259 -621,427 -389,391 -638,826 -638,1442 z"
           class="fil0"
           inkscape:connector-curvature="0"
           style="fill:#fefefe" />
        <path
           id="path19"
           d="m 20922,8603 v 1874 c -35,-26 -249,-397 -289,-464 l -702,-1186 c -26,-43 -47,-78 -72,-120 -42,-71 -43,-104 -88,-104 h -1166 v 4073 c 390,-23 840,-58 1215,-88 l -5,-296 c 0,-536 0,-1072 0,-1608 37,27 256,400 298,469 l 800,1325 65,109 1170,-5 -1,-4067 -1225,89 z"
           class="fil0"
           inkscape:connector-curvature="0"
           style="fill:#fefefe" />
        <path
           id="path21"
           d="m 4515,9813 c 0,228 49,414 152,600 305,548 1367,664 1367,875 0,272 -336,236 -590,236 -157,0 -306,-14 -451,-36 l -434,-68 v 1136 c 584,68 1061,170 1646,53 256,-51 480,-136 655,-259 630,-443 663,-1450 103,-1874 -290,-220 -573,-333 -907,-465 -538,-213 -181,-390 110,-390 359,0 655,37 1003,118 -139,-606 -217,-818 -398,-1171 l -37,-7 c -24,-4 -48,-8 -73,-12 -954,-143 -2148,60 -2148,1263 z"
           class="fil0"
           inkscape:connector-curvature="0"
           style="fill:#fefefe" />
        <path
           id="path23"
           d="m 22722,8648 v 3939 l 2258,1 139,-555 c 23,-100 46,-189 64,-275 l 63,-292 h -1254 v -413 h 782 v -989 h -782 v -384 l 1153,1 -43,-241 c -41,-192 -87,-386 -131,-578 l -68,-260 h -2136 c -34,0 -44,10 -44,44 z"
           class="fil0"
           inkscape:connector-curvature="0"
           style="fill:#fefefe" />
        <path
           id="path25"
           d="m 25142,8618 c 5,55 98,243 129,314 l 712,1545 c 26,51 42,97 69,153 l 220,473 c 83,202 126,94 -48,456 l -436,926 c -31,84 42,52 131,62 l 831,84 c 67,6 378,28 413,45 9,-37 30,-84 43,-120 l 1016,-2658 c 129,-321 258,-691 385,-1016 29,-74 54,-137 76,-214 l 15,-50 c -295,0 -957,-103 -1298,-103 l -304,980 c -18,64 -32,105 -49,158 -15,46 -42,129 -46,175 -52,-38 -337,-884 -367,-976 -20,-61 -41,-107 -59,-162 -19,-56 -49,-126 -61,-175 l -261,14 -323,24 -447,38 c -107,11 -218,27 -342,27 z"
           class="fil0"
           inkscape:connector-curvature="0"
           style="fill:#fefefe" />
        <path
           id="path27"
           d="m 1343,10492 c 0,399 -8,516 127,906 177,511 658,983 1177,1154 438,145 816,145 1285,64 55,-9 110,-20 164,-31 l 26,-178 30,-221 69,-513 43,-355 -133,59 c -466,233 -1193,148 -1456,-418 -104,-224 -95,-555 6,-767 96,-202 293,-364 504,-441 280,-102 530,-78 720,-31 13,3 26,7 39,10 67,19 134,43 202,63 l 114,47 c -25,-74 -195,-1216 -214,-1252 -63,-63 -582,-75 -726,-75 -330,0 -711,124 -958,266 -231,133 -495,368 -647,592 -67,99 -134,201 -184,318 -93,218 -188,498 -188,801 z"
           class="fil0"
           inkscape:connector-curvature="0"
           style="fill:#fefefe" />
        <path
           id="path29"
           d="m 7068,6670 c -462,0 -383,-406 -189,-616 224,-242 867,-462 867,41 0,265 -402,575 -679,575 z m -546,-384 c 0,358 207,574 542,653 58,14 194,-5 258,23 112,49 238,190 246,344 4,80 -36,175 -43,249 66,18 198,145 240,202 246,330 69,551 69,668 0,82 339,172 339,531 0,312 -287,489 -537,570 -122,39 -192,62 -127,197 548,0 847,120 998,596 35,111 98,175 167,97 7,-8 102,-438 537,-255 64,27 97,64 157,79 82,-55 65,-128 49,-255 -24,-188 13,-70 -113,-271 -28,-44 -46,-76 -72,-120 -404,-669 18,-1090 18,-1198 0,-259 -178,-840 -270,-1073 -195,-497 -394,-864 -674,-1288 -233,-353 -177,-377 -558,-430 -96,-13 -177,-28 -274,-50 -83,-19 -176,-46 -249,-75 -447,-177 -212,-74 -358,135 -27,39 -42,52 -72,90 -119,151 -274,354 -274,582 z"
           class="fil1"
           inkscape:connector-curvature="0"
           style="fill:#d45f93" />
        <path
           id="path31"
           d="m 7790,10699 c 0,499 -30,809 -186,1275 -150,448 -338,854 -613,1217 -45,59 -85,120 -135,175 l -147,163 c -254,288 -361,333 -636,544 -14,11 -18,13 -26,20 349,0 1085,-348 1385,-565 258,-186 369,-279 598,-509 211,-211 415,-486 575,-739 101,-159 304,-547 368,-724 19,-54 38,-103 59,-162 40,-108 74,-207 109,-333 36,-126 151,-597 154,-731 -363,-174 -448,162 -512,226 -97,97 -279,98 -378,0 -60,-59 -47,-73 -66,-155 -66,-292 -423,-543 -741,-543 -120,0 36,106 116,356 42,130 75,317 75,485 z"
           class="fil1"
           inkscape:connector-curvature="0"
           style="fill:#d45f93" />
      </g>
    </g>
  </g>
</svg>
