<svg id="icon" viewBox="0 0 20 20" fill="none" xmlns="http://www.w3.org/2000/svg">
    <path d="M7.21375 4.79675C7.06297 4.94753 6.97061 5.15705 6.97091 5.38716L6.97091 5.48844C6.97091 5.94924 7.34394 6.32227 7.80415 6.32168L12.3571 6.32168L4.65532 14.0234C4.33005 14.3487 4.33005 14.8767 4.65532 15.2019C4.98059 15.5272 5.50856 15.5272 5.83383 15.2019L13.5356 7.50019V12.0531C13.5356 12.5139 13.9086 12.8869 14.3688 12.8864H14.4701C14.9309 12.8864 15.3039 12.5133 15.3034 12.0531V5.38716C15.3034 4.92636 14.9303 4.55333 14.4701 4.55391L7.80415 4.55391C7.57375 4.55391 7.36452 4.64598 7.21375 4.79675Z" fill="#34C759"/>
</svg>